<svg width="3840" height="586" viewBox="0 0 3840 586" fill="none" xmlns="http://www.w3.org/2000/svg">
<path d="M-1935.24 228.428H-1805.21V358.454H-1935.24V455.974H-2065.26V358.454H-2325.32V228.428H-2065.26V130.909H-1935.24V228.428ZM-2065.26 130.909H-2195.29V0.882489H-2065.26V130.909ZM-2065.26 586H-2195.29V455.974H-2065.26V586ZM-1322.11 228.428H-1192.09V358.454H-1322.11V455.974H-1452.14V358.454H-1712.19V228.428H-1452.14V130.909H-1322.11V228.428ZM-1452.14 130.909H-1582.16V0.882489H-1452.14V130.909ZM-1452.14 586H-1582.16V455.974H-1452.14V586ZM-708.987 228.428H-578.961V358.454H-708.987V455.974H-839.013V358.454H-1099.07V228.428H-839.013V130.909H-708.987V228.428ZM-839.013 130.909H-969.039V0.882489H-839.013V130.909ZM-839.013 586H-969.039V455.974H-839.013V586ZM-95.8617 228.428H34.1644V358.454H-95.8617V455.974H-225.888V358.454H-485.94V228.428H-225.888V130.909H-95.8617V228.428ZM-225.888 130.909H-355.914V0.882489H-225.888V130.909ZM-225.888 586H-355.914V455.974H-225.888V586ZM517.264 228.428H647.29V358.454H517.264V455.974H387.237V358.454H127.185V228.428H387.237V130.909H517.264V228.428ZM387.237 130.909H257.211V0.882489H387.237V130.909ZM387.237 586H257.211V455.974H387.237V586ZM1130.39 228.428H1260.41V358.454H1130.39V455.974H1000.36V358.454H740.31V228.428H1000.36V130.909H1130.39V228.428ZM1000.36 130.909H870.337V0.882489H1000.36V130.909ZM1000.36 586H870.337V455.974H1000.36V586ZM1743.51 228.428H1873.54V358.454H1743.51V455.974H1613.49V358.454H1353.44V228.428H1613.49V130.909H1743.51V228.428ZM1613.49 130.909H1483.46V0.882489H1613.49V130.909ZM1613.49 586H1483.46V455.974H1613.49V586ZM2356.64 228.428H2486.67V358.454H2356.64V455.974H2226.61V358.454H1966.56V228.428H2226.61V130.909H2356.64V228.428ZM2226.61 130.909H2096.59V0.882489H2226.61V130.909ZM2226.61 586H2096.59V455.974H2226.61V586ZM2969.76 228.428H3099.79V358.454H2969.76V455.974H2839.74V358.454H2579.69V228.428H2839.74V130.909H2969.76V228.428ZM2839.74 130.909H2709.71V0.882489H2839.74V130.909ZM2839.74 586H2709.71V455.974H2839.74V586ZM3582.89 228.428H3712.92V358.454H3582.89V455.974H3452.86V358.454H3192.81V228.428H3452.86V130.909H3582.89V228.428ZM3452.86 130.909H3322.84V0.882489H3452.86V130.909ZM3452.86 586H3322.84V455.974H3452.86V586ZM4196.02 228.428H4326.04V358.454H4196.02V455.974H4065.99V358.454H3805.94V228.428H4065.99V130.909H4196.02V228.428ZM4065.99 130.909H3935.96V0.882489H4065.99V130.909ZM4065.99 586H3935.96V455.974H4065.99V586ZM4809.14 228.428H4939.17V358.454H4809.14V455.974H4679.11V358.454H4419.06V228.428H4679.11V130.909H4809.14V228.428ZM4679.11 130.909H4549.09V0.882489H4679.11V130.909ZM4679.11 586H4549.09V455.974H4679.11V586ZM5422.27 228.428H5552.29V358.454H5422.27V455.974H5292.24V358.454H5032.19V228.428H5292.24V130.909H5422.27V228.428ZM5292.24 130.909H5162.21V0.882489H5292.24V130.909ZM5292.24 586H5162.21V455.974H5292.24V586ZM6035.39 228.428H6165.42V358.454H6035.39V455.974H5905.37V358.454H5645.31V228.428H5905.37V130.909H6035.39V228.428ZM5905.37 130.909H5775.34V0.882489H5905.37V130.909ZM5905.37 586H5775.34V455.974H5905.37V586Z" fill="#ffffff"/>
</svg>
