<svg width="313" height="128" viewBox="0 0 313 128" fill="none" xmlns="http://www.w3.org/2000/svg">
<path d="M23.3448 23.4941H93.5131V128H70.2895V112.075L42.7531 128H0.121298V46.7176H23.3448V104.776H36.6154L70.2895 85.3682V46.7176H23.3448V23.4941ZM179.948 64.1353H203.172V87.3588H179.948V104.776H156.725V87.3588H110.278V64.1353H156.725V46.7176H179.948V64.1353ZM156.725 46.7176H133.501V23.4941H156.725V46.7176ZM156.725 128H133.501V104.776H156.725V128ZM243.009 64.1353H289.456V87.3588H243.009V128H219.786V0.270568H243.009V64.1353ZM312.68 128H289.456V87.3588H312.68V128ZM312.68 64.1353H289.456V23.4941H312.68V64.1353Z" fill="white" style="mix-blend-mode:difference"/>
</svg>
