<svg width="322" height="140" viewBox="0 0 322 140" fill="none" xmlns="http://www.w3.org/2000/svg">
<path d="M12.5266 0.688277H48.9346V54.913H36.8847V46.6502L22.5969 54.913H0.476617V12.7382H12.5266V42.8631H19.4122L36.8847 32.7928V12.7382H12.5266V0.688277ZM69.6831 0.688277H106.091V54.913H94.0412V46.6502L79.7534 54.913H57.6332V12.7382H69.6831V42.8631H76.5688L94.0412 32.7928V12.7382H69.6831V0.688277ZM150.94 12.8243H126.84V0.774352H150.94V12.8243ZM126.84 54.9991H114.79V12.8243H126.84V54.9991ZM195.656 67.0491H171.556V54.9991H195.656V67.0491ZM195.656 0.774352H207.706V54.9991H195.656V45.9617H159.506V0.774352H171.556V33.9117H195.656V0.774352ZM228.377 0.688277H264.785V54.913H252.735V46.6502L238.447 54.913H216.327V12.7382H228.377V42.8631H235.262L252.735 32.7928V12.7382H228.377V0.688277ZM321.683 54.913H309.633V12.7382H321.683V54.913ZM273.483 0.688277H309.633V12.7382H285.533V54.913H273.483V0.688277ZM12.5266 94.7757H36.6265V106.826H12.5266V127.913H0.476617V61.6383H12.5266V94.7757ZM48.6764 127.913H36.6265V106.826H48.6764V127.913ZM48.6764 94.7757H36.6265V73.6883H48.6764V94.7757ZM69.3469 73.6883H105.755V127.913H93.705V119.65L79.4172 127.913H57.297V85.7382H69.3469V115.863H76.2326L93.705 105.793V85.7382H69.3469V73.6883ZM126.503 73.6883H162.653V127.913H126.503V139.963H114.454V85.7382H126.503V115.863H150.603V85.7382H126.503V73.6883ZM171.274 73.9465H219.732V128.171H171.274V73.9465ZM207.682 116.121V85.9964H183.324V116.121H207.682ZM228.43 73.9465H276.888V128.171H228.43V73.9465ZM264.838 116.121V85.9964H240.48V116.121H264.838ZM321.737 85.8243H297.637V73.7744H321.737V85.8243ZM297.637 127.999H285.587V85.8243H297.637V127.999Z" fill="white" style="mix-blend-mode:difference"/>
</svg>
