<svg width="1502" height="653" viewBox="0 0 1502 653" fill="none" xmlns="http://www.w3.org/2000/svg">
<path d="M56.4471 0.517628H226.642V254H170.313V215.374L103.522 254H0.117647V56.8471H56.4471V197.671H88.6353L170.313 150.595V56.8471H56.4471V0.517628ZM323.635 0.517628H493.83V254H437.5V215.374L370.71 254H267.305V56.8471H323.635V197.671H355.823L437.5 150.595V56.8471H323.635V0.517628ZM703.481 57.2494H590.822V0.92H703.481V57.2494ZM590.822 254.402H534.493V57.2494H590.822V254.402ZM912.516 310.732H799.857V254.402H912.516V310.732ZM912.516 0.92H968.845V254.402H912.516V212.155H743.528V0.92H799.857V155.826H912.516V0.92ZM1065.47 0.517628H1235.67V254H1179.34V215.374L1112.55 254H1009.14V56.8471H1065.47V197.671H1097.66L1179.34 150.595V56.8471H1065.47V0.517628ZM1501.65 254H1445.32V56.8471H1501.65V254ZM1276.33 0.517628H1445.32V56.8471H1332.66V254H1276.33V0.517628ZM56.4471 441.094H169.106V497.424H56.4471V596H0.117647V286.188H56.4471V441.094ZM225.435 596H169.106V497.424H225.435V596ZM225.435 441.094H169.106V342.518H225.435V441.094ZM322.063 342.518H492.258V596H435.929V557.374L369.138 596H265.733V398.847H322.063V539.671H354.251L435.929 492.595V398.847H322.063V342.518ZM589.25 342.518H758.239V596H589.25V652.329H532.921V398.847H589.25V539.671H701.909V398.847H589.25V342.518ZM798.537 343.725H1025.06V597.207H798.537V343.725ZM968.732 540.878V400.054H854.866V540.878H968.732ZM1065.72 343.725H1292.25V597.207H1065.72V343.725ZM1235.92 540.878V400.054H1122.05V540.878H1235.92ZM1501.9 399.249H1389.24V342.92H1501.9V399.249ZM1389.24 596.402H1332.91V399.249H1389.24V596.402Z" fill="black"/>
</svg>
